<svg xmlns="http://www.w3.org/2000/svg" x="0px" y="0px" viewBox="0 0 112.5 80" xml:space="preserve" fill="none" stroke="#2a2424">
<g>
	<path stroke-width="3" stroke-linecap="round" stroke-linejoin="round" stroke-miterlimit="10" d="
		M69.087,67.272c5.012,0.908,8.329,2.49,8.329,4.289c0,2.816-8.133,5.1-18.166,5.1s-18.168-2.283-18.168-5.1
		c0-1.801,3.319-3.381,8.333-4.289"/>
	<path stroke-width="3" stroke-linecap="round" stroke-linejoin="round" stroke-miterlimit="10" d="
		M48.342,68.858l4.56-6.732h12.695l4.561,6.732v0.623c0,0.221-7.093,1.08-10.908,1.08c-3.814,0-10.907-1.08-10.907-1.303V68.858z"/>
	<path stroke-width="3" stroke-linecap="round" stroke-linejoin="round" stroke-miterlimit="10" d="
		M84.063,21.226c-0.152,1.036-0.396,2.048-0.812,3.017c-3.447,8.022-16.197,9.819-23.729,9.819c-7.104,0-13.34-1.896-17.961-4.145
		c-2.842-1.382-8.844-5.896-8.844-5.896c-4.914-4.875-8.738-9.583-17.221-9.583c-0.201,0-0.408,0.006-0.613,0.017
		c-6.926,0.365-11.338,4.79-12.637,9.015c0,0,6.49,2.296,10.822,7.482c6.416,7.683,12.104,16.595,20.146,22.73
		c7.004,5.344,15.891,8.285,25.023,8.285c15.49,0,28.914-8.295,35.303-20.312c15.191-9.97,18.244-21.869,16.1-29.269
		c-1.973-6.808-8.078-10.845-14.758-8.256C87.118,7.14,85.09,14.242,84.063,21.226z"/>
	<path stroke-width="3" stroke-linecap="round" stroke-linejoin="round" stroke-miterlimit="10" d="
		M22.938,33.726c-0.649-0.838-1.308-1.686-1.975-2.535"/>
	<path stroke-width="3" stroke-linecap="round" stroke-linejoin="round" stroke-miterlimit="10" d="
		M51.041,55.254c-5.197-1.045-10.078-3.209-14.187-6.342c-3.741-2.855-6.962-6.445-10.126-10.365"/>
	<path stroke-width="3" stroke-linecap="round" stroke-linejoin="round" stroke-miterlimit="10" d="
		M102.344,20.326c-1.336,3.108-6.49,9.105-9.176,7.951c-2.684-1.154-1.883-9.02-0.547-12.129c1.336-3.107,4.598-4.693,7.281-3.54
		C102.586,13.762,103.678,17.217,102.344,20.326z"/>
	<path stroke-width="3" stroke-linecap="round" stroke-linejoin="round" stroke-miterlimit="10" d="
		M85.075,15.595c-4.787,11.924-21.18,12.028-31.643,12.028c-9.865,0-19.398-5.201-25.818-8.543"/>
</g>
</svg>
