<?xml version="1.0" encoding="utf-8"?>
<!-- Generator: Adobe Illustrator 16.0.0, SVG Export Plug-In . SVG Version: 6.00 Build 0)  -->
<!DOCTYPE svg PUBLIC "-//W3C//DTD SVG 1.1//EN" "http://www.w3.org/Graphics/SVG/1.1/DTD/svg11.dtd">
<svg version="1.1" id="Layer_1" xmlns="http://www.w3.org/2000/svg" xmlns:xlink="http://www.w3.org/1999/xlink" x="0px" y="0px"
	 width="158px" height="156px" viewBox="0 0 158 156" enable-background="new 0 0 158 156" xml:space="preserve" fill="none" stroke="#32362d">
<g>
	<g>
		<path stroke-width="4" stroke-linecap="round" stroke-linejoin="round" stroke-miterlimit="10" d="
			M153.489,78c0,41.141-33.348,74.49-74.488,74.49c-41.143,0-74.49-33.35-74.49-74.49S37.858,3.51,79.001,3.51
			C120.142,3.51,153.489,36.859,153.489,78z"/>
		<path stroke-width="4" stroke-linecap="round" stroke-linejoin="round" stroke-miterlimit="10" d="
			M48.583,20.455c0.818-0.445,1.645-0.871,2.48-1.281"/>
		<path stroke-width="4" stroke-linecap="round" stroke-linejoin="round" stroke-miterlimit="10" d="
			M32.765,32.355c2.572-2.607,5.357-5.006,8.326-7.164"/>
		<path stroke-width="4" stroke-linecap="round" stroke-linejoin="round" stroke-miterlimit="10" d="
			M13.339,79.588c0-10.352,2.352-20.162,6.547-28.93c2.041-4.268,4.52-8.285,7.375-11.998"/>
		<path stroke-width="4" stroke-linecap="round" stroke-linejoin="round" stroke-miterlimit="10" d="
			M85.321,143.199c-1.133,0.135-2.277,0.238-3.426,0.314"/>
		<path stroke-width="4" stroke-linecap="round" stroke-linejoin="round" stroke-miterlimit="10" d="
			M98.272,140.35c-1.279,0.42-2.578,0.801-3.889,1.145"/>
		<path stroke-width="4" stroke-linecap="round" stroke-linejoin="round" stroke-miterlimit="10" d="
			M140.862,98.705c-5.713,16.225-17.488,29.617-32.592,37.449"/>
	</g>
	<g>
		<g id="twitter_23_">
			<path stroke-width="3" stroke-linecap="round" stroke-linejoin="round" stroke-miterlimit="10" d="
				M123.735,52.455c-3.162,1.529-6.523,2.516-10.086,2.973c3.629-2.336,6.416-6.016,7.734-10.428
				c-3.395,2.152-7.154,3.691-11.158,4.592c-3.186-3.686-7.76-5.984-12.789-5.984c-9.686,0-17.535,8.443-17.535,18.883
				c0,1.467,0.152,2.916,0.443,4.279c-14.547-0.752-27.482-8.297-36.137-19.695c-1.504,2.779-2.367,6.018-2.367,9.488
				c0,6.533,3.096,12.348,7.807,15.684c-2.879-0.117-5.584-0.92-7.945-2.346c0,0.078,0,0.174,0,0.256
				c0,9.129,6.045,16.748,14.064,18.512c-1.471,0.428-3.021,0.623-4.633,0.623c-1.125,0-2.197-0.078-3.277-0.334
				c2.221,7.525,8.701,12.992,16.373,13.105c-6.002,5.088-13.561,8.076-21.775,8.076c-1.42,0-2.82-0.082-4.189-0.262
				c7.76,5.381,16.959,8.514,26.885,8.514c32.248,0,49.893-28.773,49.893-53.717c0-0.797-0.018-1.605-0.059-2.414
				C118.405,59.562,121.384,56.232,123.735,52.455z"/>
		</g>
		<g id="twitter_22_">
			<path stroke-width="3" stroke-linecap="round" stroke-linejoin="round" stroke-miterlimit="10" d="
				M62.042,67.373c-3.201-1.365-6.24-3.078-9.078-5.096"/>
			<path stroke-width="3" stroke-linecap="round" stroke-linejoin="round" stroke-miterlimit="10" d="
				M71.05,70.184c-1.025-0.209-2.041-0.451-3.043-0.727"/>
		</g>
		<g id="twitter_21_">
			<path stroke-width="3" stroke-linecap="round" stroke-linejoin="round" stroke-miterlimit="10" d="
				M107.614,76.576c0.404-1.383,0.756-2.773,1.057-4.168"/>
			<path stroke-width="3" stroke-linecap="round" stroke-linejoin="round" stroke-miterlimit="10" d="
				M84.972,107.426c9.121-5.604,15.857-14.137,20.02-23.629"/>
		</g>
	</g>
</g>
</svg>
