<svg xmlns="http://www.w3.org/2000/svg" x="0px" y="0px"
	 viewBox="0 0 52.153 52.858" xml:space="preserve" fill="#ffffff">
<g>
	<path d="M26.076,50.859c-13.471,0-24.43-10.959-24.43-24.43S12.605,2,26.076,2c13.471,0,24.431,10.959,24.431,24.43
		S39.547,50.859,26.076,50.859z M26.076,6c-11.265,0-20.43,9.164-20.43,20.43c0,11.265,9.165,20.43,20.43,20.43
		c11.266,0,20.431-9.165,20.431-20.43C46.507,15.164,37.342,6,26.076,6z"/>
	<g>
		<path d="M34.032,36.384c-0.512,0-1.024-0.195-1.414-0.586l-15.91-15.91c-0.781-0.781-0.781-2.048,0-2.828
			c0.78-0.781,2.048-0.781,2.828,0l15.91,15.91c0.781,0.78,0.781,2.047,0,2.828C35.056,36.189,34.544,36.384,34.032,36.384z"/>
		<path d="M18.122,36.384c-0.512,0-1.024-0.195-1.414-0.586c-0.781-0.781-0.781-2.048,0-2.828l15.91-15.91
			c0.78-0.781,2.048-0.781,2.828,0c0.781,0.78,0.781,2.047,0,2.828l-15.91,15.91C19.146,36.189,18.634,36.384,18.122,36.384z"/>
	</g>
</g>
</svg>
