<svg
   xmlns:svg="http://www.w3.org/2000/svg"
   xmlns="http://www.w3.org/2000/svg"
   viewBox="0 0 76.000001 76"
   xml:space="preserve">
<path
  d="m 51.179165,43.843555 -0.02104,0.02446 -7.887056,-1.337375 v -9.058344 l 7.887056,-1.339332 0.02104,0.02054 19.818833,-19.81898 -7.335002,-7.3345273 -19.818833,19.8199563 0.02104,0.02054 -1.337553,7.887285 h -9.05729 l -1.341561,-7.887285 0.02505,-0.02054 L 12.336004,4.9999997 4.9999997,12.334527 24.818845,32.154485 l 0.02204,-0.02054 8.056379,1.365747 v 8.997688 l -8.058383,1.366725 -0.02104,-0.02054 -19.8178433,19.821917 7.3360043,7.334529 19.816841,-19.820938 -0.02304,-0.0225 1.368612,-8.055558 h 9.001183 l 1.365607,8.055558 -0.02104,0.0225 19.818833,19.820938 7.337006,-7.334529 -19.820837,-19.821917 z"
  fill="#81997e" />
</svg>