<?xml version="1.0" encoding="utf-8"?>
<svg xmlns="http://www.w3.org/2000/svg" xmlns:xlink="http://www.w3.org/1999/xlink"
	 width="457px" height="34px" viewBox="0 0 457 34" xml:space="preserve">
<g fill="#ffffff">
	<polygon points="225.919,13.867 220.51,9.871 225.919,5.875 231.328,9.871 	"/>
	<polygon points="225.919,28.125 220.51,24.129 225.919,20.133 231.328,24.129 	"/>
	<circle cx="249.883" cy="17.494" r="2.452"/>
	<circle cx="201.829" cy="17.494" r="2.452"/>
	<g>
		<path d="M211.216,25.129c-4.375,0-7.935-3.559-7.935-7.934s3.56-7.934,7.935-7.934c1.074,0,2.121,0.213,3.11,0.635l0.416,0.199
			c0.357,0.178,0.658,0.352,0.931,0.537l11.372,6.562l-11.433,6.602c-0.205,0.143-0.507,0.316-0.861,0.494l-0.383,0.184
			C213.341,24.916,212.294,25.129,211.216,25.129z M211.216,11.262c-3.272,0-5.935,2.662-5.935,5.934s2.662,5.934,5.935,5.934
			c0.807,0,1.589-0.16,2.325-0.475l0.329-0.16c0.226-0.111,0.459-0.24,0.68-0.391l8.496-4.908l-8.436-4.869
			c-0.28-0.188-0.512-0.316-0.749-0.436l-0.362-0.174C212.803,11.422,212.02,11.262,211.216,11.262z"/>
		<path d="M240.622,25.129c-1.074,0-2.121-0.213-3.11-0.635l-0.416-0.199c-0.357-0.178-0.659-0.352-0.931-0.537l-11.372-6.562
			l11.433-6.602c0.205-0.143,0.507-0.316,0.861-0.494l0.383-0.184c1.027-0.441,2.074-0.654,3.152-0.654
			c4.375,0,7.935,3.559,7.935,7.934S244.997,25.129,240.622,25.129z M228.792,17.195l8.436,4.869
			c0.28,0.188,0.512,0.316,0.749,0.436l0.362,0.174c0.696,0.295,1.479,0.455,2.283,0.455c3.272,0,5.935-2.662,5.935-5.934
			s-2.662-5.934-5.935-5.934c-0.807,0-1.589,0.16-2.325,0.475l-0.329,0.16c-0.226,0.111-0.459,0.24-0.68,0.391L228.792,17.195z"/>
	</g>
	<rect x="252.335" y="16.494" width="200.331" height="2"/>
	<rect x="4.334" y="16.494" width="200.331" height="2"/>
</g>
</svg>
